mtllib materials.mtl
v 1.805 -0.4499997 -0.06500018
v 1.805 -0.4499997 0.004999757
v 1.805 2.07 0.005000234
v 1.805 2.07 -0.06499958
v 1.805 1.755 -0.0649997
v 1.805 1.44 -0.06499982
v 1.805 1.125 -0.06499982
v 1.805 0.8100001 -0.06499994
v 1.805 0.4950001 -0.06500006
v 1.805 0.1800002 -0.06500006
v 1.805 -0.1349998 -0.06500018
v -1.805 -0.4499999 -0.06500018
v -1.805 -0.1349999 -0.06500006
v -1.805 0.1800001 -0.06500006
v -1.805 0.495 -0.06500006
v -1.805 0.8100001 -0.06499994
v -1.805 1.125 -0.06499982
v -1.805 1.44 -0.06499982
v -1.805 1.755 -0.0649997
v -1.805 2.07 -0.06499958
v -1.805 2.07 0.005000234
v -1.805 -0.4499998 0.004999757
v 1.46205 -0.1649248 -0.07500017
v 1.46205 -0.4200747 -0.07500017
v 1.46205 1.095075 -0.07499981
v 1.46205 0.8399251 -0.07499993
v 1.46205 1.725075 -0.07499969
v 1.46205 1.469925 -0.07499981
v 1.46205 2.040075 -0.07499957
v 1.46205 1.784925 -0.07499969
v 1.46205 1.410075 -0.07499981
v 1.46205 1.154925 -0.07499981
v 1.46205 0.4650751 -0.07500005
v 1.46205 0.2099252 -0.07500005
v 1.46205 0.7800751 -0.07499993
v 1.46205 0.5249251 -0.07500005
v 1.46205 0.1500752 -0.07500005
v 1.46205 -0.1050748 -0.07500017
v -1.46205 2.040075 -0.07499957
v -1.46205 1.784925 -0.07499969
v -1.46205 1.725075 -0.07499969
v -1.46205 1.469925 -0.07499981
v -1.46205 1.410075 -0.07499981
v -1.46205 1.154925 -0.07499981
v -1.46205 1.095075 -0.07499981
v -1.46205 0.8399251 -0.07499993
v -1.46205 0.7800751 -0.07499993
v -1.46205 0.524925 -0.07500005
v -1.46205 0.465075 -0.07500005
v -1.46205 0.2099251 -0.07500005
v -1.46205 0.1500751 -0.07500005
v -1.46205 -0.1050749 -0.07500005
v -1.46205 -0.1649249 -0.07500005
v -1.46205 -0.4200749 -0.07500017
v -1.805 -0.4500002 0.06499994
v -1.805 -0.4500001 -0.004999995
v -1.804999 2.069999 -0.004999757
v -1.804999 2.069999 0.06499994
v -1.804999 1.755 0.06499994
v -1.805 1.44 0.06499994
v -1.804999 1.125 0.06499994
v -1.805 0.8099996 0.06499994
v -1.805 0.4949995 0.06499994
v -1.805 0.1799996 0.06499994
v -1.805 -0.1350003 0.06499994
v 1.805 -0.4500004 0.0650003
v 1.805 -0.1350005 0.0650003
v 1.805 0.1799995 0.0650003
v 1.805 0.4949995 0.0650003
v 1.805 0.8099995 0.0650003
v 1.805 1.124999 0.0650003
v 1.805 1.439999 0.0650003
v 1.805 1.755 0.0650003
v 1.805 2.07 0.0650003
v 1.805 2.07 -0.004999399
v 1.805 -0.4500004 -0.004999638
v -1.46205 -0.1649253 0.07499993
v -1.46205 -0.4200752 0.07499993
v -1.46205 1.095075 0.07499993
v -1.46205 0.8399245 0.07499993
v -1.46205 1.725074 0.07499993
v -1.46205 1.469925 0.07499993
v -1.46205 2.040075 0.07499969
v -1.46205 1.784925 0.07499993
v -1.46205 1.410075 0.07499993
v -1.46205 1.154925 0.07499993
v -1.46205 0.4650745 0.07499993
v -1.46205 0.2099246 0.07499993
v -1.46205 0.7800745 0.07499993
v -1.46205 0.5249246 0.07499993
v -1.46205 0.1500747 0.07499993
v -1.46205 -0.1050753 0.07499993
v 1.46205 2.040075 0.07500005
v 1.46205 1.784925 0.07500029
v 1.46205 1.725074 0.07500029
v 1.46205 1.469925 0.07500029
v 1.46205 1.410075 0.07500029
v 1.46205 1.154925 0.07500029
v 1.46205 1.095075 0.07500029
v 1.46205 0.8399243 0.07500029
v 1.46205 0.7800744 0.07500029
v 1.46205 0.5249245 0.07500029
v 1.46205 0.4650745 0.07500029
v 1.46205 0.2099245 0.07500029
v 1.46205 0.1500745 0.07500029
v 1.46205 -0.1050754 0.07500029
v 1.46205 -0.1649255 0.07500029
v 1.46205 -0.4200754 0.07500029
vn 1 1.838181E-08 0
vn -1 6.460566E-08 0
vn 4.953295E-08 -1 2.870555E-07
vn 0 1 8.81406E-07
vn 0.02914635 3.876426E-09 -0.9995752
vn -4.553092E-11 -1.892211E-07 1
vn 0.02914634 4.228418E-07 -0.9995752
vn 0.02914635 4.22842E-07 -0.9995752
vn 0.02914633 4.228421E-07 -0.9995752
vn 0.02914635 3.876424E-09 -0.9995752
vn 0.02914635 3.876426E-09 -0.9995752
vn 0.02914636 4.228419E-07 -0.9995752
vn 0.02914635 4.228419E-07 -0.9995752
vn 2.379487E-10 0.3169405 -0.9484454
vn -0.02914633 4.203148E-07 -0.9995752
vn 3.992483E-10 -0.3169419 -0.948445
vn -9.758298E-10 4.672129E-07 -1
vn -4.885782E-10 0.3169388 -0.948446
vn -0.02914635 4.203147E-07 -0.9995752
vn -1.043607E-09 -0.3169394 -0.9484458
vn -1.529877E-10 4.672128E-07 -1
vn -1.125503E-09 0.3169412 -0.9484452
vn -0.02914635 1.349193E-09 -0.9995752
vn -1.043606E-09 -0.3169392 -0.9484459
vn -9.400201E-10 0 -1
vn -1.125507E-09 0.3169423 -0.9484448
vn -0.02914635 4.203146E-07 -0.9995752
vn 7.673371E-10 -0.3169408 -0.9484453
vn -8.281887E-10 4.672123E-07 -1
vn -7.673368E-10 0.3169406 -0.9484454
vn -0.02914633 4.203146E-07 -0.9995752
vn 6.011175E-09 -0.3169408 -0.9484454
vn 8.934926E-10 4.672125E-07 -1
vn -6.011173E-09 0.3169407 -0.9484454
vn -0.02914634 1.349194E-09 -0.9995752
vn 1.052862E-08 -0.3169407 -0.9484454
vn -8.920403E-10 0 -1
vn -1.052862E-08 0.3169406 -0.9484454
vn -0.02914634 1.349194E-09 -0.9995752
vn -2.136455E-08 -0.3169405 -0.9484454
vn -2.056496E-08 2.336063E-07 -1
vn -4.712351E-08 0.3169405 -0.9484454
vn -0.02914636 4.203147E-07 -0.9995752
vn 1.776014E-08 -0.3169406 -0.9484454
vn -1.985395E-08 2.336063E-07 -1
vn -1 1.756503E-08 -9.389199E-07
vn 1 2.381657E-08 2.641914E-06
vn -6.308341E-08 -1 -4.801696E-07
vn -1.947152E-08 1 6.467441E-07
vn -0.02914645 -7.24169E-09 0.9995752
vn 8.725737E-08 9.457278E-08 -1
vn -0.02914646 2.856092E-08 0.9995752
vn -0.02914645 1.49616E-08 0.9995752
vn -0.02914613 4.086774E-07 0.9995752
vn -0.02914646 -1.447827E-08 0.9995752
vn -0.02914646 -1.942973E-08 0.9995752
vn -0.02914644 -5.605764E-09 0.9995752
vn -0.02914646 -6.860772E-09 0.9995752
vn -7.795519E-08 0.3169339 0.9484476
vn 0.02914589 3.99706E-07 0.9995752
vn -8.827738E-08 -0.3169406 0.9484454
vn -8.752286E-08 9.340657E-07 1
vn -7.73675E-08 0.3169377 0.9484463
vn 0.02914623 2.851703E-08 0.9995752
vn -8.786624E-08 -0.3169413 0.9484452
vn -8.603662E-08 -3.59251E-10 1
vn -7.678795E-08 0.3169408 0.9484453
vn 0.02914627 9.473242E-09 0.9995752
vn -8.745495E-08 -0.3169404 0.9484454
vn -8.697496E-08 -3.591661E-10 1
vn -7.719925E-08 0.3169407 0.9484454
vn 0.02914627 2.329712E-08 0.9995752
vn -8.80347E-08 -0.3169416 0.9484451
vn -8.661502E-08 -3.590807E-10 1
vn -7.761044E-08 0.3169398 0.9484457
vn 0.02914624 -2.86146E-08 0.9995752
vn -9.15991E-08 -0.3169408 0.9484453
vn -8.770158E-08 -3.591947E-10 1
vn -7.811465E-08 0.3169404 0.9484454
vn 0.02914625 2.013767E-08 0.9995752
vn -9.516322E-08 -0.3169405 0.9484454
vn -8.704207E-08 -3.591661E-10 1
vn -7.17497E-08 0.3169409 0.9484453
vn 0.02914625 1.491773E-08 0.9995752
vn -9.755011E-08 -0.3169404 0.9484455
vn -8.698173E-08 -3.591945E-10 1
vn -6.818551E-08 0.3169403 0.9484455
vn 0.02914624 2.01376E-08 0.9995752
vn -1.028336E-07 -0.3169404 0.9484455
vn -8.71696E-08 -3.592372E-10 1
vt 0.1519356 -0.1072965
vt 0.1576318 -0.1113652
vt 0.3041038 0.09369557
vt 0.2984077 0.09776424
vt 0.2800987 0.07213165
vt 0.2617897 0.04649905
vt 0.2434807 0.02086644
vt 0.2251717 -0.004766152
vt 0.2068627 -0.03039875
vt 0.1885537 -0.05603134
vt 0.1702446 -0.08166394
vt -0.1519356 -0.1072965
vt -0.1702446 -0.08166394
vt -0.1885537 -0.05603133
vt -0.2068626 -0.03039873
vt -0.2251717 -0.004766124
vt -0.2434807 0.02086647
vt -0.2617897 0.04649908
vt -0.2800987 0.07213168
vt -0.2984077 0.09776427
vt -0.3041038 0.09369561
vt -0.1576318 -0.1113652
vt 0.2599207 0.1747604
vt 0.1385033 -0.1652084
vt 0.1450955 -0.1675628
vt 0.2665129 0.172406
vt -0.2599207 0.1747603
vt -0.2665128 0.172406
vt -0.1450952 -0.1675628
vt -0.1385031 -0.1652084
vt 0.1151869 0.2300946
vt 0.08707429 0.2443049
vt 0.07426728 0.2123349
vt 0.09703848 0.2008246
vt -0.1118033 0.2258429
vt 0.04964076 -0.09704535
vt 0.2750364 0.01565246
vt 0.1135923 0.3385407
vt 0.002736378 0.2869357
vt -0.02537622 0.3011459
vt -0.03818324 0.2691759
vt -0.01541202 0.2576656
vt -0.05348883 0.3153562
vt -0.08160144 0.3295664
vt -0.09440844 0.2975964
vt -0.07163724 0.2860861
vt -0.08160145 0.3295664
vt -0.109714 0.3437767
vt -0.122521 0.3118067
vt -0.09974983 0.3002964
vt -0.02537611 0.3011459
vt -0.05348872 0.3153562
vt -0.06629574 0.2833862
vt -0.04352453 0.2718759
vt 0.05896168 0.2585151
vt 0.03084908 0.2727254
vt 0.01804207 0.2407554
vt 0.04081328 0.2292451
vt 0.03084898 0.2727254
vt 0.00273638 0.2869357
vt -0.01007063 0.2549657
vt 0.01270058 0.2434554
vt 0.08707418 0.2443049
vt 0.05896158 0.2585152
vt 0.04615457 0.2265452
vt 0.06892578 0.2150349
vt -0.1955727 0.3385278
vt -0.3181599 -0.001020985
vt -0.3035464 0.03016474
vt -0.2042508 0.3051992
vt -0.277481 0.00974565
vt -0.2492509 -0.004229824
vt -0.2367108 0.02784582
vt -0.2595771 0.03916596
vt -0.1855182 -0.01743816
vt -0.002673437 0.2938314
vt -0.02276419 0.2658589
vt -0.1708684 0.01373053
vt -0.1034317 0.2951174
vt -0.126253 0.306528
vt -0.2570227 0.04498856
vt -0.2342014 0.03357791
vt -0.1674716 0.3283826
vt -0.290059 -0.01116603
vt -0.2754455 0.02001968
vt -0.1761497 0.2950541
vt -0.2492509 -0.004229827
vt -0.2210209 -0.01820531
vt -0.2084807 0.01387035
vt -0.2313471 0.02519048
vt -0.1597583 -0.03256998
vt 0.0230863 0.2786997
vt 0.002995539 0.2507272
vt -0.1451086 -0.001401269
vt -0.07525726 0.2810301
vt -0.09807856 0.2924408
vt -0.2288482 0.03090134
vt -0.2060269 0.0194907
vt -0.1393714 0.3182374
vt -0.2619585 -0.02131145
vt -0.247345 0.009874286
vt -0.1480495 0.2849088
vt -0.2210208 -0.01820532
vt -0.1927907 -0.03218081
vt -0.1802506 -0.0001051538
vt -0.203117 0.01121499
vt -0.133998 -0.04770201
vt 0.04884665 0.2635677
vt 0.02875589 0.2355951
vt -0.1193483 -0.0165333
vt -0.04708268 0.2669429
vt -0.069904 0.2783536
vt -0.2006737 0.01681412
vt -0.1778524 0.00540346
vt -0.111271 0.3080922
vt -0.2338579 -0.03145672
vt -0.2192444 -0.0002709749
vt -0.1199491 0.2747636
vt -0.1927908 -0.03218079
vt -0.1645608 -0.04615628
vt -0.1520206 -0.01408062
vt -0.174887 -0.00276048
vt -0.1082373 -0.06283424
vt 0.07460742 0.2484354
vt 0.05451666 0.2204629
vt -0.09358754 -0.03166553
vt -0.01890833 0.2528557
vt -0.04172965 0.2642663
vt -0.1724993 0.002726899
vt -0.149678 -0.008683756
vt -0.08316977 0.297947
vt -0.2057569 -0.04160181
vt -0.1911435 -0.01041608
vt -0.09184788 0.2646184
vt -0.1645608 -0.04615627
vt -0.1363307 -0.06013176
vt -0.1237906 -0.02805611
vt -0.1466569 -0.01673596
vt -0.08247689 -0.0779663
vt 0.1003678 0.2333034
vt 0.08027704 0.2053308
vt -0.06782715 -0.04679759
vt 0.009266121 0.2387685
vt -0.01355519 0.2501791
vt -0.1443249 -0.01136033
vt -0.1215035 -0.02277098
vt -0.05506905 0.2878018
vt -0.1776562 -0.05174702
vt -0.1630427 -0.02056129
vt -0.06374715 0.2544732
vt -0.1363306 -0.06013178
vt -0.1081006 -0.07410727
vt -0.09556045 -0.04203161
vt -0.1184268 -0.03071147
vt -0.0567165 -0.09309835
vt 0.1261282 0.2181713
vt 0.1060374 0.1901988
vt -0.04206676 -0.06192964
vt 0.03744069 0.2246812
vt 0.01461938 0.2360919
vt -0.1161503 -0.02544757
vt -0.09332902 -0.03685823
vt -0.02696829 0.2776566
vt -0.1495554 -0.06189222
vt -0.134942 -0.03070649
vt -0.03564639 0.244328
vt -0.1081006 -0.07410727
vt -0.07987054 -0.08808275
vt -0.0673304 -0.0560071
vt -0.09019674 -0.04468695
vt -0.03095615 -0.1082304
vt 0.1518885 0.2030393
vt 0.1317978 0.1750667
vt -0.01630642 -0.07706168
vt 0.0656151 0.210594
vt 0.04279378 0.2220047
vt -0.08797591 -0.03953479
vt -0.0651546 -0.05094544
vt 0.00113249 0.2675113
vt -0.1214547 -0.07203743
vt -0.1068412 -0.0408517
vt -0.007545608 0.2341828
vt -0.0798706 -0.08808272
vt -0.05164056 -0.1020582
vt -0.03910042 -0.06998254
vt -0.06196675 -0.05866241
vt -0.005195751 -0.1233625
vt 0.1776489 0.1879072
vt 0.1575582 0.1599347
vt 0.009453984 -0.09219375
vt 0.09378954 0.1965068
vt 0.07096824 0.2079174
vt -0.05980145 -0.05362201
vt -0.03698015 -0.06503267
vt -0.1625141 -0.1148529
vt -0.156818 -0.1107843
vt -0.3032902 0.09427637
vt -0.3089864 0.09020771
vt -0.2906773 0.06457514
vt -0.2723683 0.03894256
vt -0.2540593 0.01330998
vt -0.2357502 -0.01232261
vt -0.2174412 -0.0379552
vt -0.1991322 -0.06358777
vt -0.1808231 -0.08922035
vt 0.1625132 -0.1148529
vt 0.1808223 -0.08922037
vt 0.1991314 -0.06358783
vt 0.2174405 -0.03795529
vt 0.2357496 -0.01232275
vt 0.2540587 0.01330978
vt 0.2723678 0.03894233
vt 0.2906769 0.06457488
vt 0.308986 0.09020743
vt 0.3032899 0.09427609
vt 0.1568171 -0.1107842
vt 0.1507459 -0.1695808
vt 0.2721635 0.170388
vt 0.2655713 0.1727423
vt 0.1441537 -0.1672265
vt -0.1507457 -0.1695808
vt -0.1441536 -0.1672264
vt -0.2655711 0.1727423
vt -0.2721633 0.170388
vt 0.04742701 -0.09160967
vt 0.0755396 -0.07739942
vt 0.05739119 -0.04812934
vt 0.03461999 -0.05963965
vt -0.0496407 -0.09704532
vt 0.1118034 0.2258429
vt -0.1135923 0.3385407
vt -0.2750363 0.0156525
vt 0.1598774 -0.03476864
vt 0.18799 -0.02055835
vt 0.1698416 0.008711687
vt 0.1470704 -0.002798644
vt 0.2161026 -0.006348112
vt 0.2442152 0.007862167
vt 0.2260668 0.03713219
vt 0.2032956 0.02562189
vt 0.2442152 0.007862086
vt 0.2723278 0.02207234
vt 0.2541794 0.05134242
vt 0.2314081 0.03983207
vt 0.18799 -0.02055835
vt 0.2161026 -0.006348108
vt 0.1979542 0.02292195
vt 0.175183 0.01141164
vt 0.1036522 -0.06318916
vt 0.1317648 -0.0489789
vt 0.1136164 -0.01970884
vt 0.09084519 -0.03121914
vt 0.1317648 -0.0489789
vt 0.1598774 -0.03476864
vt 0.141729 -0.005498592
vt 0.1189578 -0.01700889
vt 0.0755396 -0.07739942
vt 0.1036522 -0.06318916
vt 0.0855038 -0.03391909
vt 0.06273259 -0.0454294
vt 0.2077278 -0.004392048
vt 0.02488341 0.3068778
vt 0.03953314 0.275709
vt 0.1876371 0.02358052
vt 0.1175533 0.332794
vt 0.0893233 0.3188185
vt 0.1072272 0.2893982
vt 0.1300935 0.3007183
vt 0.1713474 0.3297817
vt 0.2939345 -0.009767027
vt 0.2852564 0.02356149
vt 0.1859608 0.298596
vt 0.2342011 0.03357788
vt 0.2570224 0.04498858
vt 0.1262526 0.3065279
vt 0.1034313 0.2951173
vt 0.1819665 -0.01952454
vt -0.0008781074 0.2917451
vt 0.01377159 0.2605764
vt 0.1618757 0.008447963
vt 0.08932345 0.3188184
vt 0.06109337 0.304843
vt 0.07899725 0.2754227
vt 0.1018636 0.2867428
vt 0.1432468 0.3196365
vt 0.2658339 -0.0199123
vt 0.2571558 0.01341624
vt 0.1578602 0.2884508
vt 0.2060268 0.01949068
vt 0.2288481 0.03090132
vt 0.09807838 0.2924407
vt 0.07525708 0.2810301
vt 0.1562054 -0.03465698
vt -0.02663937 0.2766127
vt -0.01198963 0.245444
vt 0.1361146 -0.006684442
vt 0.06109339 0.304843
vt 0.03286333 0.2908675
vt 0.0507672 0.2614472
vt 0.07363355 0.2727674
vt 0.1151458 0.3094913
vt 0.237733 -0.03005742
vt 0.2290549 0.003271103
vt 0.1297593 0.2783056
vt 0.1778523 0.005403455
vt 0.2006737 0.01681411
vt 0.06990393 0.2783535
vt 0.04708262 0.2669429
vt 0.130445 -0.049789
vt -0.05239973 0.2614806
vt -0.03774998 0.2303119
vt 0.1103542 -0.02181648
vt 0.03286333 0.2908675
vt 0.004633273 0.2768921
vt 0.02253712 0.2474717
vt 0.04540349 0.2587919
vt 0.08704538 0.2993461
vt 0.2096324 -0.0402027
vt 0.2009543 -0.006874171
vt 0.1016588 0.2681604
vt 0.1496779 -0.008683792
vt 0.1724992 0.002726882
vt 0.04172947 0.2642663
vt 0.01890813 0.2528557
vt 0.1046848 -0.06492098
vt -0.07815992 0.2463487
vt -0.06351019 0.21518
vt 0.08459403 -0.03694846
vt 0.004633279 0.2768921
vt -0.02359674 0.2629165
vt -0.005692893 0.2334962
vt 0.01717342 0.2448164
vt 0.05894443 0.2892009
vt 0.1815315 -0.05034786
vt 0.1728535 -0.01701932
vt 0.07355789 0.2580152
vt 0.1215034 -0.022771
vt 0.1443247 -0.01136036
vt 0.01355499 0.2501791
vt -0.009266293 0.2387684
vt 0.07892425 -0.08005312
vt -0.1039204 0.2312165
vt -0.0892707 0.2000478
vt 0.0588335 -0.05208059
vt -0.02359675 0.2629165
vt -0.05182682 0.2489411
vt -0.03392296 0.2195208
vt -0.0110566 0.2308409
vt 0.0308436 0.2790557
vt 0.1534308 -0.06049306
vt 0.1447527 -0.02716451
vt 0.04545706 0.24787
vt 0.09332897 -0.03685822
vt 0.1161503 -0.02544759
vt -0.01461943 0.2360918
vt -0.03744075 0.2246812
vt 0.05316379 -0.09518523
vt -0.1296809 0.2160844
vt -0.1150312 0.1849157
vt 0.03307303 -0.06721269
vt -0.05182682 0.2489411
vt -0.08005687 0.2349656
vt -0.062153 0.2055453
vt -0.03928667 0.2168654
vt 0.002742812 0.2689105
vt 0.12533 -0.07063826
vt 0.1166519 -0.03730971
vt 0.01735628 0.2377248
vt 0.06515452 -0.05094545
vt 0.08797583 -0.0395348
vt -0.0427939 0.2220046
vt -0.06561521 0.210594
vt 0.02740349 -0.1103172
vt -0.1554412 0.2009524
vt -0.1407915 0.1697837
vt 0.007312729 -0.0823447
vt -0.08005688 0.2349656
vt -0.1082869 0.2209901
vt -0.09038307 0.1915698
vt -0.06751673 0.2028899
vt -0.02535794 0.2587653
vt 0.09722927 -0.08078346
vt 0.08855116 -0.04745491
vt -0.01074447 0.2275796
vt 0.03698007 -0.06503268
vt 0.05980137 -0.05362203
vt -0.07096836 0.2079174
vt -0.09378967 0.1965068
o group2136269592
g mesh2136269592
usemtl mat14
f 11/11/1 10/10/1 9/9/1 8/8/1 7/7/1 6/6/1 5/5/1 4/4/1 3/3/1 2/2/1 1/1/1
f 22/22/2 21/21/2 20/20/2 19/19/2 18/18/2 17/17/2 16/16/2 15/15/2 14/14/2 13/13/2 12/12/2
f 2/26/3 22/25/3 12/24/3 1/23/3
f 20/30/4 21/29/4 3/28/4 4/27/4
f 24/34/5 23/33/5 11/32/5 1/31/5
f 3/38/6 21/37/6 22/36/6 2/35/6
f 26/42/7 25/41/7 7/40/7 8/39/7
f 28/46/8 27/45/8 5/44/8 6/43/8
f 30/50/9 29/49/9 4/48/9 5/47/9
f 32/54/10 31/53/10 6/52/10 7/51/10
f 34/58/11 33/57/11 9/56/11 10/55/11
f 36/62/12 35/61/12 8/60/12 9/59/12
f 38/66/13 37/65/13 10/64/13 11/63/13
f 29/70/14 39/69/14 20/68/14 4/67/14
f 39/74/15 40/73/15 19/72/15 20/71/15
f 40/78/16 30/77/16 5/76/16 19/75/16
f 40/82/17 39/81/17 29/80/17 30/79/17
f 27/86/18 41/85/18 19/84/18 5/83/18
f 41/90/19 42/89/19 18/88/19 19/87/19
f 42/94/20 28/93/20 6/92/20 18/91/20
f 42/98/21 41/97/21 27/96/21 28/95/21
f 31/102/22 43/101/22 18/100/22 6/99/22
f 43/106/23 44/105/23 17/104/23 18/103/23
f 44/110/24 32/109/24 7/108/24 17/107/24
f 44/114/25 43/113/25 31/112/25 32/111/25
f 25/118/26 45/117/26 17/116/26 7/115/26
f 45/122/27 46/121/27 16/120/27 17/119/27
f 46/126/28 26/125/28 8/124/28 16/123/28
f 46/130/29 45/129/29 25/128/29 26/127/29
f 35/134/30 47/133/30 16/132/30 8/131/30
f 47/138/31 48/137/31 15/136/31 16/135/31
f 48/142/32 36/141/32 9/140/32 15/139/32
f 48/146/33 47/145/33 35/144/33 36/143/33
f 33/150/34 49/149/34 15/148/34 9/147/34
f 49/154/35 50/153/35 14/152/35 15/151/35
f 50/158/36 34/157/36 10/156/36 14/155/36
f 50/162/37 49/161/37 33/160/37 34/159/37
f 37/166/38 51/165/38 14/164/38 10/163/38
f 51/170/39 52/169/39 13/168/39 14/167/39
f 52/174/40 38/173/40 11/172/40 13/171/40
f 52/178/41 51/177/41 37/176/41 38/175/41
f 23/182/42 53/181/42 13/180/42 11/179/42
f 53/186/43 54/185/43 12/184/43 13/183/43
f 54/190/44 24/189/44 1/188/44 12/187/44
f 54/194/45 53/193/45 23/192/45 24/191/45
f 65/205/46 64/204/46 63/203/46 62/202/46 61/201/46 60/200/46 59/199/46 58/198/46 57/197/46 56/196/46 55/195/46
f 76/216/47 75/215/47 74/214/47 73/213/47 72/212/47 71/211/47 70/210/47 69/209/47 68/208/47 67/207/47 66/206/47
f 56/220/48 76/219/48 66/218/48 55/217/48
f 74/224/49 75/223/49 57/222/49 58/221/49
f 78/228/50 77/227/50 65/226/50 55/225/50
f 57/232/51 75/231/51 76/230/51 56/229/51
f 80/236/52 79/235/52 61/234/52 62/233/52
f 82/240/53 81/239/53 59/238/53 60/237/53
f 84/244/54 83/243/54 58/242/54 59/241/54
f 86/248/55 85/247/55 60/246/55 61/245/55
f 88/252/56 87/251/56 63/250/56 64/249/56
f 90/256/57 89/255/57 62/254/57 63/253/57
f 92/260/58 91/259/58 64/258/58 65/257/58
f 83/264/59 93/263/59 74/262/59 58/261/59
f 93/268/60 94/267/60 73/266/60 74/265/60
f 94/272/61 84/271/61 59/270/61 73/269/61
f 94/276/62 93/275/62 83/274/62 84/273/62
f 81/280/63 95/279/63 73/278/63 59/277/63
f 95/284/64 96/283/64 72/282/64 73/281/64
f 96/288/65 82/287/65 60/286/65 72/285/65
f 96/292/66 95/291/66 81/290/66 82/289/66
f 85/296/67 97/295/67 72/294/67 60/293/67
f 97/300/68 98/299/68 71/298/68 72/297/68
f 98/304/69 86/303/69 61/302/69 71/301/69
f 98/308/70 97/307/70 85/306/70 86/305/70
f 79/312/71 99/311/71 71/310/71 61/309/71
f 99/316/72 100/315/72 70/314/72 71/313/72
f 100/320/73 80/319/73 62/318/73 70/317/73
f 100/324/74 99/323/74 79/322/74 80/321/74
f 89/328/75 101/327/75 70/326/75 62/325/75
f 101/332/76 102/331/76 69/330/76 70/329/76
f 102/336/77 90/335/77 63/334/77 69/333/77
f 102/340/78 101/339/78 89/338/78 90/337/78
f 87/344/79 103/343/79 69/342/79 63/341/79
f 103/348/80 104/347/80 68/346/80 69/345/80
f 104/352/81 88/351/81 64/350/81 68/349/81
f 104/356/82 103/355/82 87/354/82 88/353/82
f 91/360/83 105/359/83 68/358/83 64/357/83
f 105/364/84 106/363/84 67/362/84 68/361/84
f 106/368/85 92/367/85 65/366/85 67/365/85
f 106/372/86 105/371/86 91/370/86 92/369/86
f 77/376/87 107/375/87 67/374/87 65/373/87
f 107/380/88 108/379/88 66/378/88 67/377/88
f 108/384/89 78/383/89 55/382/89 66/381/89
f 108/388/90 107/387/90 77/386/90 78/385/90
